<?xml version="1.0" encoding="iso-8859-1"?>
<!-- Generator: Adobe Illustrator 19.0.0, SVG Export Plug-In . SVG Version: 6.00 Build 0)  -->
<svg version="1.1" id="Capa_1" xmlns="http://www.w3.org/2000/svg" xmlns:xlink="http://www.w3.org/1999/xlink" x="0px" y="0px"
	 viewBox="0 0 512.004 512.004" style="enable-background:new 0 0 512.004 512.004;" xml:space="preserve" fill="#2881E3">
<g>
	<g>
		<path d="M420.559,247.47H91.437c-4.71,0-8.533,3.814-8.533,8.533s3.823,8.533,8.533,8.533h329.131c4.71,0,8.525-3.814,8.525-8.533
			S425.269,247.47,420.559,247.47z"/>
	</g>
</g>
<g>
	<g>
		<path d="M382.714,129.283c-69.862-69.871-183.552-69.862-253.423,0c-69.871,69.871-69.871,183.561,0,253.431
			c34.935,34.935,80.819,52.403,126.712,52.403c45.884,0,91.776-17.468,126.711-52.403
			C452.585,312.844,452.585,199.154,382.714,129.283z M370.647,370.657c-63.215,63.215-166.076,63.198-229.291,0
			c-63.215-63.215-63.215-166.084,0-229.299c31.616-31.607,73.122-47.411,114.645-47.411c41.515,0,83.038,15.804,114.645,47.411
			C433.862,204.573,433.862,307.442,370.647,370.657z"/>
	</g>
</g>
<g>
	<g>
		<path d="M393.073,365.648c-0.742-2.756-2.807-4.958-5.504-5.862c-34.628-11.708-81.357-18.159-131.567-18.159
			s-96.939,6.451-131.567,18.15c-2.697,0.913-4.762,3.115-5.504,5.854c-0.742,2.748-0.068,5.692,1.801,7.834
			c2.739,3.149,5.555,6.246,8.559,9.25c34.935,34.935,80.819,52.403,126.712,52.403c45.884,0,91.776-17.468,126.711-52.395
			c3.004-3.004,5.82-6.101,8.559-9.25C393.141,371.331,393.815,368.387,393.073,365.648z M142.756,372.039
			c31.172-8.533,71.543-13.346,113.237-13.338c41.702,0,82.074,4.804,113.246,13.338
			C306.374,433.394,205.604,433.394,142.756,372.039z"/>
	</g>
</g>
<g>
	<g>
		<path d="M391.273,138.533c-2.739-3.149-5.555-6.246-8.559-9.25c-69.862-69.871-183.552-69.871-253.423,0
			c-2.995,3.004-5.82,6.101-8.559,9.25c-1.869,2.142-2.543,5.086-1.801,7.834s2.807,4.949,5.504,5.854
			c34.628,11.708,81.357,18.159,131.567,18.159s96.939-6.451,131.567-18.159c2.697-0.913,4.762-3.115,5.504-5.862
			C393.815,143.619,393.141,140.675,391.273,138.533z M256.002,153.305c-41.702,0-82.074-4.804-113.246-13.338
			c62.865-61.355,163.635-61.355,226.492,0C338.076,148.5,297.696,153.305,256.002,153.305z"/>
	</g>
</g>
<g>
	<g>
		<path d="M296.049,107.344c-12.681-12.681-23.629-21.683-35.49-29.175c-2.628-1.655-5.965-1.766-8.678-0.256
			c-2.722,1.502-4.412,4.369-4.412,7.475v341.231c0,3.106,1.69,5.973,4.412,7.475c1.289,0.708,2.705,1.058,4.122,1.058
			c1.587,0,3.166-0.444,4.557-1.314c11.861-7.492,22.81-16.495,35.49-29.175c40.405-40.397,62.652-93.201,62.652-148.659
			C358.692,200.528,336.446,147.732,296.049,107.344z M283.983,392.588c-6.912,6.912-13.227,12.621-19.448,17.527V101.883
			c6.221,4.915,12.536,10.624,19.448,17.519c37.171,37.171,57.651,85.675,57.651,136.593
			C341.634,306.896,321.154,355.408,283.983,392.588z"/>
	</g>
</g>
<g>
	<g>
		<path d="M260.124,77.913c-2.722-1.502-6.05-1.399-8.678,0.256c-11.861,7.492-22.81,16.495-35.49,29.175
			c-40.397,40.397-62.643,93.193-62.643,148.659c-0.009,55.458,22.246,108.254,62.643,148.659
			c12.681,12.681,23.629,21.683,35.49,29.175c1.391,0.87,2.97,1.314,4.557,1.314c1.417,0,2.833-0.35,4.122-1.058
			c2.722-1.502,4.412-4.369,4.412-7.475V85.388C264.535,82.282,262.846,79.414,260.124,77.913z M247.478,410.124h-0.001
			c-6.221-4.907-12.535-10.615-19.447-17.527c-37.18-37.188-57.651-85.692-57.651-136.593c0-50.91,20.471-99.413,57.643-136.593
			c6.912-6.912,13.227-12.621,19.447-17.527h0.009V410.124z"/>
	</g>
</g>
<g>
	<g>
		<path d="M486.086,193.966C456.885,89.808,362.276,17.07,256.002,17.07c-4.71,0-8.533,3.814-8.533,8.533
			c0,4.719,3.823,8.533,8.533,8.533c98.654,0,186.505,67.618,213.658,164.437c1.058,3.772,4.48,6.229,8.209,6.229
			c0.759,0,1.536-0.102,2.304-0.324C484.713,203.207,487.358,198.497,486.086,193.966z"/>
	</g>
</g>
<g>
	<g>
		<path d="M279.102,2.503c-3.337-3.336-8.73-3.336-12.066,0L249.969,19.57c-3.337,3.336-3.337,8.73,0,12.066
			c1.664,1.664,3.849,2.5,6.033,2.5c2.185,0,4.369-0.836,6.033-2.5l17.067-17.067C282.438,11.233,282.438,5.84,279.102,2.503z"/>
	</g>
</g>
<g>
	<g>
		<path d="M279.102,36.637L262.035,19.57c-3.328-3.337-8.738-3.337-12.066,0c-3.337,3.336-3.337,8.73,0,12.066l17.067,17.067
			c1.664,1.664,3.849,2.5,6.033,2.5c2.185,0,4.369-0.836,6.033-2.5C282.438,45.366,282.438,39.973,279.102,36.637z"/>
	</g>
</g>
<g>
	<g>
		<path d="M204.512,31.926c-1.22-4.548-5.905-7.253-10.453-6.033C89.85,53.789,17.069,148.415,17.069,256.003
			c0,4.719,3.823,8.533,8.533,8.533c4.71,0,8.533-3.814,8.533-8.533c0-99.883,67.575-187.725,164.335-213.623
			C203.027,41.159,205.732,36.483,204.512,31.926z"/>
	</g>
</g>
<g>
	<g>
		<path d="M31.635,249.97l-17.067-17.067c-3.328-3.337-8.738-3.337-12.066,0c-3.336,3.337-3.336,8.73,0,12.066l17.067,17.067
			c1.664,1.664,3.849,2.5,6.033,2.5c2.185,0,4.369-0.836,6.033-2.5C34.972,258.7,34.972,253.307,31.635,249.97z"/>
	</g>
</g>
<g>
	<g>
		<path d="M48.702,232.903c-3.328-3.337-8.738-3.337-12.066,0L19.569,249.97c-3.337,3.336-3.337,8.73,0,12.066
			c1.664,1.664,3.849,2.5,6.033,2.5c2.185,0,4.369-0.836,6.033-2.5l17.067-17.067C52.038,241.633,52.038,236.24,48.702,232.903z"/>
	</g>
</g>
<g>
	<g>
		<path d="M256.002,477.87c-99.874,0-187.725-67.575-213.615-164.343c-1.22-4.54-5.897-7.262-10.453-6.033
			c-4.557,1.22-7.262,5.896-6.042,10.453c27.895,104.209,122.522,176.99,230.11,176.99c4.71,0,8.533-3.814,8.533-8.533
			S260.713,477.87,256.002,477.87z"/>
	</g>
</g>
<g>
	<g>
		<path d="M262.035,480.37c-3.328-3.336-8.738-3.336-12.066,0l-17.067,17.067c-3.337,3.337-3.337,8.73,0,12.066
			c1.664,1.664,3.849,2.5,6.033,2.5c2.185,0,4.369-0.836,6.033-2.5l17.067-17.067C265.372,489.1,265.372,483.707,262.035,480.37z"/>
	</g>
</g>
<g>
	<g>
		<path d="M262.035,480.37l-17.067-17.067c-3.328-3.337-8.738-3.337-12.066,0c-3.337,3.337-3.337,8.73,0,12.066l17.067,17.067
			c1.664,1.664,3.849,2.5,6.033,2.5c2.185,0,4.369-0.836,6.033-2.5C265.372,489.1,265.372,483.707,262.035,480.37z"/>
	</g>
</g>
<g>
	<g>
		<path d="M486.402,247.47c-4.71,0-8.533,3.814-8.533,8.533c0,99.874-67.575,187.725-164.335,213.623
			c-4.548,1.22-7.253,5.897-6.033,10.453c1.016,3.806,4.463,6.323,8.235,6.323c0.725,0,1.468-0.094,2.21-0.29
			c104.209-27.895,176.99-122.522,176.99-230.11C494.935,251.284,491.113,247.47,486.402,247.47z"/>
	</g>
</g>
<g>
	<g>
		<path d="M509.502,267.037l-17.067-17.067c-3.337-3.337-8.73-3.337-12.066,0c-3.336,3.336-3.336,8.73,0,12.066l17.067,17.067
			c1.664,1.664,3.849,2.5,6.033,2.5c2.185,0,4.369-0.836,6.033-2.5C512.838,275.766,512.838,270.373,509.502,267.037z"/>
	</g>
</g>
<g>
	<g>
		<path d="M492.435,249.97c-3.337-3.337-8.73-3.337-12.066,0l-17.067,17.067c-3.337,3.336-3.337,8.73,0,12.066
			c1.664,1.664,3.849,2.5,6.033,2.5c2.185,0,4.369-0.836,6.033-2.5l17.067-17.067C495.772,258.7,495.772,253.307,492.435,249.97z"/>
	</g>
</g>
<g>
</g>
<g>
</g>
<g>
</g>
<g>
</g>
<g>
</g>
<g>
</g>
<g>
</g>
<g>
</g>
<g>
</g>
<g>
</g>
<g>
</g>
<g>
</g>
<g>
</g>
<g>
</g>
<g>
</g>
</svg>
